<?xml version="1.0" encoding="utf-8"?>
<!-- Generator: Adobe Illustrator 25.0.1, SVG Export Plug-In . SVG Version: 6.00 Build 0)  -->
<svg version="1.1" id="Layer_1" xmlns="http://www.w3.org/2000/svg" xmlns:xlink="http://www.w3.org/1999/xlink" x="0px" y="0px"
	 viewBox="0 0 129 29" style="enable-background:new 0 0 129 29;" xml:space="preserve">
<style type="text/css">
	.st0{fill:#54473E;}
	.st1{fill:#F6A859;}
	.st2{fill:#FDFDFD;}
</style>
<g>
	<path d="M46.9,25.6V0.2H52v21.1h5.2v4.3H46.9z"/>
	<path d="M62.5,25.8c-1.2,0-2.1-0.3-2.7-0.8c-0.6-0.6-1.1-1.3-1.3-2.3c-0.2-1-0.3-2.1-0.3-3.3c0-1.3,0.1-2.4,0.4-3.2
		c0.3-0.8,0.7-1.5,1.3-2.1c0.6-0.5,1.5-1,2.6-1.4l3.2-1.1V9.4c0-1.2-0.4-1.7-1.1-1.7c-0.7,0-1,0.5-1,1.4v1.3h-5c0-0.1,0-0.2,0-0.3
		s0-0.3,0-0.4C58.5,7.5,59,6,60,5.1s2.6-1.3,4.8-1.3c1.2,0,2.2,0.2,3.1,0.6c0.9,0.4,1.6,1,2.2,1.8c0.5,0.8,0.8,1.8,0.8,3v16.5h-5.1
		V23c-0.3,0.9-0.7,1.6-1.2,2.1C63.9,25.6,63.3,25.8,62.5,25.8z M64.6,21.8c0.4,0,0.7-0.2,0.9-0.5c0.2-0.4,0.2-0.7,0.2-1.2v-6
		c-0.7,0.3-1.3,0.7-1.7,1.1c-0.4,0.4-0.6,1.1-0.6,1.9v2.8C63.4,21.2,63.8,21.8,64.6,21.8z"/>
	<path d="M72.9,29.2V3.9h5.3v2.3c0.3-0.8,0.8-1.4,1.3-1.9c0.6-0.4,1.4-0.7,2.4-0.7c1.4,0,2.4,0.5,3,1.5s0.9,2.4,0.9,4v10.6
		c0,1.1-0.2,2.1-0.5,3c-0.3,0.9-0.8,1.6-1.5,2.1c-0.7,0.5-1.5,0.8-2.6,0.8c-1.4,0-2.4-0.8-3-2.5v5.9H72.9z M79.4,21.8
		c0.5,0,0.9-0.3,1-0.8c0.1-0.5,0.2-1.2,0.2-2v-8.5c0-0.8-0.1-1.5-0.2-2c-0.1-0.5-0.4-0.8-1-0.8c-0.6,0-0.9,0.3-1,0.8
		c-0.1,0.5-0.2,1.2-0.2,2V19c0,0.8,0.1,1.4,0.2,2C78.5,21.5,78.8,21.8,79.4,21.8z"/>
	<path d="M91.9,25.8c-1.2,0-2-0.2-2.6-0.7s-1-1.2-1.2-2c-0.2-0.9-0.3-1.9-0.3-3V3.9h5.2v15.5c0,0.9,0.1,1.5,0.2,1.8
		c0.1,0.3,0.5,0.5,1,0.5c0.5,0,0.9-0.2,1-0.7c0.1-0.5,0.2-1.1,0.2-1.9V3.9h5.2v21.6h-5.2v-2.3c-0.3,0.8-0.7,1.5-1.2,1.9
		S92.9,25.8,91.9,25.8z"/>
	<path d="M106.9,25.8c-1.4,0-2.3-0.3-2.8-0.9c-0.5-0.6-0.7-1.5-0.7-2.7V8.7h-1.5V4.8h1.5V0.2h5v4.6h1.5v3.9h-1.5V21
		c0,0.4,0.1,0.6,0.2,0.8s0.3,0.2,0.7,0.2c0.2,0,0.4,0,0.6-0.1v3.5c-0.1,0-0.5,0.1-1.1,0.2C108.1,25.8,107.5,25.8,106.9,25.8z"/>
	<path d="M115.4,25.8c-1.2,0-2.1-0.3-2.7-0.8c-0.6-0.6-1.1-1.3-1.3-2.3c-0.2-1-0.3-2.1-0.3-3.3c0-1.3,0.1-2.4,0.4-3.2
		c0.3-0.8,0.7-1.5,1.3-2.1c0.6-0.5,1.5-1,2.6-1.4l3.2-1.1V9.4c0-1.2-0.4-1.7-1.1-1.7c-0.7,0-1,0.5-1,1.4v1.3h-5c0-0.1,0-0.2,0-0.3
		s0-0.3,0-0.4c0-2.2,0.5-3.7,1.5-4.6c1-0.9,2.6-1.3,4.8-1.3c1.2,0,2.2,0.2,3.1,0.6c0.9,0.4,1.6,1,2.2,1.8c0.5,0.8,0.8,1.8,0.8,3
		v16.5h-5.1V23c-0.3,0.9-0.7,1.6-1.2,2.1S116.1,25.8,115.4,25.8z M117.4,21.8c0.4,0,0.7-0.2,0.9-0.5c0.2-0.4,0.2-0.7,0.2-1.2v-6
		c-0.7,0.3-1.3,0.7-1.7,1.1c-0.4,0.4-0.6,1.1-0.6,1.9v2.8C116.3,21.2,116.7,21.8,117.4,21.8z"/>
</g>
<path class="st0" d="M36.2,8.9c0.2,3.6-0.1,7.3,0,10.9c0,1.2-0.3,1.6-1.5,1.8c-0.4,0.1-0.9,0.1-1.3,0.2c-0.7,0.1-1.4,0.1-1.3,1.1
	c0,0.4-0.3,0.5-0.6,0.4c-0.7-0.2-1.3,0.1-1.9,0.1c-0.6,0-0.9,0.3-1,0.8c-0.2,1.3-1.4,2-2,3.1c-0.1,0.1-0.2,0.2-0.4,0.2
	c-1-0.1-2,0.3-3,0c-0.5-0.1-1-0.3-1.3,0.3c-0.1,0.2-0.3,0.2-0.5,0.2c-0.5,0-0.7,0.2-0.7,0.7c0.1,0.9-0.6,0.7-1,0.6
	c-0.4-0.1-0.8-0.2-1.2-0.4c-1-0.4-2-0.8-3.1-1c-0.7-0.1-0.8-0.9-0.8-1.5c0-0.4,0.1-0.9-0.6-0.8c-0.2,0-0.2-0.2-0.2-0.3
	c-0.1-0.3,0.2-0.7-0.2-1c-0.7-0.4-1.4-0.7-2.3-0.5C9.8,24,8.2,24.1,6.8,23c-0.1-0.1-0.2-0.1-0.3-0.1c-1.3,0.1-2.2-1-3.5-1
	c-0.5,0-0.8-0.4-0.9-1C1.9,19.7,2,18.6,2,17.5c0-3.2,0-6.5,0-9.7c0-0.6,0-0.9-0.8-0.9C0.3,6.9,0,6.4,0,5.5c0.1-1.6,0.2-1.8,1.5-2
	c0.6-0.1,1,0.1,1.2,0.7c0.1,0.2,0.1,0.6,0.5,0.5c0.4-0.1,0.5-0.3,0.6-0.7c0-0.6,0-1.2,0.2-1.8c0.2-0.5,0.4-0.9,1-1
	c2.5-0.7,5-1.1,7.7-1c2.8,0.2,5.6,0.5,8.3,0.9c0.6,0.1,0.6-0.3,0.6-0.6c0-0.5,0-0.8,0.6-0.8c0.6,0,0.7,0.2,0.7,0.7
	c0,0.8,0.4,1.1,1.2,1.2c1.2,0.2,2.3,0.2,3.5,0.5c0.2,0.1,0.4,0,0.5-0.2c0.1-0.7,0.7-0.5,1.1-0.5c0.5,0,0.3,0.5,0.3,0.7
	c0.2,0.9,1.1,1.1,1.7,1.4c1,0.5,2.2,0.4,3.2,0.8c1.2,0.4,1.8,1.1,1.8,2.4C36.2,7.5,36.2,8.2,36.2,8.9z M15.6,4.2
	c0.1-0.2,0.1-0.5,0-0.7c0.1-0.3,0.1-0.6-0.2-0.7c-0.2-0.1-0.5-0.1-0.5,0.2c-0.1,0.6,0.5,0.3,0.7,0.5c0,0.2,0,0.4,0,0.6
	c-0.3,0.1-0.7,0.2-0.5,0.7c-0.5,0.7-0.1,1.4-0.2,2.1c-0.1,0.5,0.1,0.8,0.6,0.7c0.6-0.1,0.2-0.5,0.2-0.8c0-0.3,0-0.7,0-1
	c0.1-0.4,0.1-0.7,0-1.1C15.5,4.6,15.6,4.4,15.6,4.2z M21.8,24.4c0.5-0.7-0.2-1.2-0.1-1.8c0,0-0.1-0.1-0.1-0.1
	c-0.2,0.4-0.9,0.1-1,0.5c-0.1,0.4,0.2,0.7,0.6,0.8C21.5,23.9,21.8,23.9,21.8,24.4c-0.1,0-0.2,0-0.3,0c-0.2-0.1-0.4-0.2-0.4,0
	c0,0.2,0,0.6,0.2,0.7c0.3,0.1,0.2-0.2,0.3-0.4C21.6,24.6,21.7,24.5,21.8,24.4z M20.4,2.3c-0.1,0-0.3,0-0.4,0c0-0.3-0.2-0.6-0.6-0.5
	c-0.5,0.1-1-0.1-1.6-0.1c-0.7-0.1-1.3-0.1-2-0.2c-0.2,0-0.4,0-0.4,0.3c0,0.1,0,0.3,0.2,0.3c0.4,0,0.4,0.2,0.5,0.5
	c0.3,0.6,0.3,1.2,0.3,1.8c0,1.3,0,2.7,0,4.1c0.3-0.5,0.3-0.9,0.3-1.3c0-1.2,0-2.3,0-3.5c0-0.2-0.1-0.7,0.3-0.7
	c0.4,0,0.6,0.3,0.6,0.7c0,1.7,0,3.3,0,5c0,0.4,0,0.7,0.5,0.6c0.8-0.2,0.8,0.5,0.9,0.9c0.1,0.6-0.4,0.4-0.7,0.4
	c-0.5,0-0.6,0.3-0.5,0.7c0.1,0.5,0.5,0.7,0.6,1.2l0,0c-0.2,0.1-0.1,0.5-0.3,0.5c0,0,0,0-0.1,0c0,0,0,0,0.1,0
	c0.5,0.4-1.1,1.4,0.5,1.5c0.9,1.6,1,0.9,1-0.3c0-0.1,0.2-0.2,0.2-0.4c-0.1-0.9,0.7,0,0.9-0.4c0.1-0.1,0.3,0.3,0.3,0.6
	c0,0.2-0.1,0.4-0.2,0.5c-0.2,0.1-0.2-0.2-0.3-0.3c-0.1-0.1-0.3-0.2-0.4-0.1c-0.1,0.1-0.1,0.2,0,0.3c0.9,0.9,0.9,2.1,1.4,3.2
	c0.6,1.2,0.8,1.4,2.2,1.5c1.8,0.1,3.7,0,5.5,0.3c0.7,0.1,1.5-0.1,2.1,0.2c1,0.6,2.1,0.5,3.2,0.7c0.6,0.1,0.8-0.2,0.9-0.8
	c0.2-2,0-4,0.1-6c0-0.4-0.2-0.5-0.5-0.6c-0.2,0-0.3-0.1-0.3-0.3c0-0.2,0.1-0.4,0.3-0.3c0.6,0,0.5-0.4,0.5-0.7c0-0.6,0-1.2,0-1.8
	c0.1-1.3-0.1-2.5-0.3-3.8c-0.1-0.4-0.3-0.6-0.6-0.7c-1.3-0.4-2.7-0.7-4.1-0.7c-0.7-0.5-1.5-0.5-2.2-0.7c0-0.1-0.1-0.3-0.3-0.3
	c-1.7-0.3-3.4-0.7-5-1.1c-0.3-0.1-0.4,0.1-0.4,0.4c-0.6,0.1-1.2-0.1-1.7-0.3C20.8,2,20.7,2,20.4,2.3z M3.9,5.6
	C3.8,5.7,3.5,5.4,3.3,5.7C3.2,5.9,2.7,5.8,2.8,6c0.1,0.3,0.4,0.1,0.7,0.1C4.2,6,5,5.9,5.7,5.7c0.3-0.1,0.7-0.1,0.7,0.4
	c0,0.2,0,0.6,0.3,0.5c0.3,0,0.6-0.2,0.6-0.5c0-0.2,0.1-0.4,0.3-0.5C8.1,5.4,7.8,5,7.7,4.8c-0.1-0.3-0.4-0.1-0.6,0
	C6.1,5,5.1,5.6,3.9,5.6z M14.8,14.3c0,0.5,0,1,0,1.5c0,0.2,0,0.5,0.3,0.5c0.4,0,0.3-0.3,0.3-0.5c0.1-1,0-1.9,0.1-2.9
	c0.1-0.6-0.4-1-1-0.8c-0.1,0-0.4,0.1-0.2,0.3C15.1,12.9,14.6,13.7,14.8,14.3z M17,13.8c0-0.6,0-1.2-0.1-1.7c0-0.4-0.4-0.5-0.7-0.5
	c-0.2,0-0.5-0.1-0.5,0.2c0,0.3,0.3,0.4,0.5,0.5c0.4,0.2,0.4,0.5,0.4,0.8c0.1,1.1,0,2.3-0.1,3.4c0,0.2-0.1,0.5,0.1,0.6
	c0.2,0,0.2-0.4,0.2-0.6C16.9,15.5,17.1,14.7,17,13.8z M12.6,1.8c0-0.2-0.2-0.2-0.3-0.2c-0.4,0-0.8,0-1.1,0c-0.3,0-0.6-0.1-0.7,0.3
	c-0.1,0.3-0.1,0.6,0.1,0.8c0.2,0.3,0.5,0,0.8,0C11.8,2.5,12.4,2.4,12.6,1.8z M8.1,3c0-1.2-0.7-0.4-1-0.5c-0.3,0-0.7-0.1-0.7,0.4
	c0,0.4,0,0.9,0.2,1.1C7,4.3,7.1,3.7,7.3,3.5c0.1-0.1,0.3-0.1,0.4-0.1C8.1,3.4,8.1,3.2,8.1,3z M19.8,17.7c-0.3-0.4,0-1.1-0.8-1.2
	c-0.1,0-0.4,0-0.4,0.2c0.2,0.5,0.1,1.1,0.6,1.5C19.5,18.3,19.6,17.9,19.8,17.7z M20.6,17.6c-0.1,0.1-0.4,0.2-0.5,0.4
	c-0.1,0.1,0.1,0.2,0.2,0.2c0.2,0,0.5,0,0.5-0.3C20.8,17.7,20.8,17.7,20.6,17.6z M6,4.8C5.6,5,5.1,4.6,4.8,4.9c0,0-0.1,0.1-0.1,0.2
	C5.1,5,5.5,5,5.9,4.9C5.9,4.9,5.9,4.9,6,4.8z M19.7,20.4c-0.1-0.1,0-0.3-0.2-0.3c-0.2,0-0.2,0.2-0.2,0.4c0,0.1,0,0.3,0.2,0.3
	C19.6,20.8,19.6,20.6,19.7,20.4z M19.2,18.7c-0.2,0-0.2,0.1-0.1,0.2c0.1,0.1,0.1,0.4,0.3,0.4c0.2,0,0.2-0.1,0.2-0.3
	C19.4,18.8,19.3,18.7,19.2,18.7z"/>
<path class="st1" d="M18.1,13c0.3-0.1,0.2-0.4,0.3-0.5c-0.1,0.3,0.1,0.6,0.3,0.9c0.2,0.3,0.4,0,0.5-0.1c0.1-0.1,0.2-0.3,0.1-0.3
	c-0.5,0.2-0.5-0.5-0.9-0.5c-0.1-0.4-0.6-0.7-0.6-1.2c0-0.4,0-0.7,0.5-0.7c0.3,0,0.8,0.1,0.7-0.4c-0.1-0.4-0.1-1-0.9-0.9
	c-0.4,0.1-0.5-0.1-0.5-0.6c0.1-1.7,0-3.3,0-5c0-0.4-0.1-0.7-0.6-0.7c-0.5,0-0.3,0.4-0.3,0.7c0,1.2,0,2.3,0,3.5c0,0.4,0,0.8-0.3,1.3
	c0-1.5,0-2.8,0-4.1c0-0.6,0-1.2-0.3-1.8c-0.1-0.3-0.1-0.5-0.5-0.5c-0.2,0-0.2-0.2-0.2-0.3c0-0.3,0.2-0.3,0.4-0.3
	c0.7,0.1,1.3,0.1,2,0.2c0.5,0,1,0.2,1.6,0.1c0.4,0,0.5,0.2,0.6,0.5c-0.4,0-0.8,0-1.2,0c-0.2,0-0.5-0.1-0.5,0.1
	c0,0.3,0.3,0.3,0.5,0.3c2.1,0.4,4.3,0.6,6.4,1C27,4,28.8,4.5,30.6,4.4c1.4,0,2.7,0.3,4.1,0.7c0.3,0.1,0.5,0.3,0.6,0.7
	c0.2,1.2,0.4,2.5,0.3,3.8c-0.1,0.6,0,1.2,0,1.8c0,0.3,0.1,0.7-0.5,0.7c-0.2,0-0.3,0.1-0.3,0.3c0,0.2,0.2,0.3,0.3,0.3
	c0.3,0.1,0.5,0.2,0.5,0.6c-0.1,2,0.1,4-0.1,6c-0.1,0.6-0.3,0.9-0.9,0.8c-1.1-0.2-2.2-0.1-3.2-0.7c-0.6-0.4-1.4-0.1-2.1-0.2
	c-1.8-0.3-3.7-0.2-5.5-0.3c-1.3-0.1-1.6-0.3-2.2-1.5c-0.5-1.1-0.5-2.3-1.4-3.2c-0.1-0.1-0.1-0.2,0-0.3c0.2-0.2,0.3,0,0.4,0.1
	c0.1,0.1,0.1,0.4,0.3,0.3c0.1,0,0.1-0.3,0.2-0.5c0-0.3-0.2-0.7-0.3-0.6c-0.3,0.4-1.1-0.5-0.9,0.4c0,0.2-0.2,0.3-0.2,0.4
	c0,1.2-0.1,1.9-1,0.3C17,14.4,18.7,13.4,18.1,13L18.1,13z M19.1,9.2c0.1,0.1,0.1,0.1,0.2,0.2c0,0.2,0,0.3,0.2,0.4
	c0,0,0.1-0.1,0.1-0.1c0-0.2-0.1-0.3-0.2-0.4C19.3,9.2,19.3,9.2,19.1,9.2c0.1-0.2-0.1-0.4-0.2-0.3C18.8,9,19,9.1,19.1,9.2z
	 M34.6,11.5c-0.4,0.2-0.8,0.5-1.3,0.4c-4.3-0.7-8.6-1.3-12.9-1.9c-0.2,0-0.6-0.2-0.7,0.1c-0.1,0.4,0.4,0.4,0.6,0.4
	c2.3,0.5,4.7,0.7,7,1.2c1.9,0.4,3.9,0.5,5.9,0.8c0.9,0.1,1.2-0.2,1.5-0.9c0.1-0.1,0.2-0.3,0-0.3C34.7,11.2,34.7,11.4,34.6,11.5z
	 M32.1,14.2c0.6,0,0.7-0.4,0.7-0.8c0.1-0.5-0.3-0.5-0.6-0.6c-2.1-0.3-4.2-0.6-6.3-0.9c-0.5-0.1-0.5,0.3-0.5,0.6
	c-0.1,0.3,0,0.6,0.4,0.7C27.9,13.6,30,13.9,32.1,14.2z M27.7,7.3C27.7,7.3,27.7,7.3,27.7,7.3c0,0.3,0,0.7,0,1c0,0.2,0,0.4,0.3,0.4
	c0.3,0,0.2-0.2,0.2-0.4c0-0.2-0.2-0.5,0.1-0.5c0.2,0,0.3,0.2,0.4,0.4C29.2,8.9,30,9.5,30.5,9c0.7-0.6,0.9-0.3,1.4,0.1
	c0.1,0.1,0.2,0.1,0.3,0.1c0-0.1,0.1-0.2,0.1-0.3c-0.2-0.7-0.3-1.3-0.5-2c0-0.2-0.1-0.3-0.3-0.4c-0.2,0-0.3,0.2-0.4,0.3
	c-0.2,0.5-0.5,1-0.7,1.5c-0.1,0.1-0.1,0.4-0.3,0.3c-0.3-0.3-0.7-0.5-0.9-0.9c-0.2-0.3,0.1-0.7,0.4-0.9c0.2-0.1,0.6-0.3,0.3-0.6
	c-0.2-0.2-0.5-0.1-0.7,0.1c-0.1,0.1-0.2,0.2-0.3,0.3c-0.3,0.3-0.5,0.4-0.4-0.2c0-0.3-0.1-0.5-0.4-0.5c-0.3,0-0.3,0.3-0.3,0.5
	C27.7,6.7,27.7,7,27.7,7.3z M25.3,15.5c0-1.5-0.3-1.8-1.7-1.7c-0.1,0-0.3,0-0.3,0.1c-0.1,0.1,0.1,0.2,0.2,0.2c0.2,0,0.4,0.1,0.5,0.1
	c-0.2,0.1-0.4,0.2-0.6,0.2c-0.1,0-0.3-0.1-0.3,0.1c-0.1,0.7-0.3,1.4,0.2,1.9c0.4,0.4,1,0.4,1.5,0.3C25.6,16.5,25.1,15.8,25.3,15.5z
	 M28.1,15.6c0,1.5,0,1.6,1.6,1.6c1.2,0,0.6-0.9,0.7-1.4c0.1-1-0.2-1.2-1.3-1.3C28,14.5,28,15,28.1,15.6z M21.3,6
	c0.2-0.1,0.8,0.3,0.8-0.3c0-0.6-0.6-0.3-0.9-0.3c-0.1,0-0.2,0-0.3,0c-0.5,0-1,0-1,0.7c0,0.6,0,1.2,0.8,1c0.2,0,0.4,0.1,0.4,0.4
	c0,0.2-0.3,0.2-0.4,0.2c-0.2,0-0.4,0-0.5,0c-0.1,0-0.2,0.1-0.2,0.2c0,0.1,0.1,0.3,0.1,0.3c0.5,0.2,1.1,0.3,1.6,0.1
	c0.5-0.2,0.1-0.7,0.2-1.1c0-0.6-0.5-0.5-0.9-0.6c-0.2,0-0.5,0.1-0.5-0.2C20.4,5.9,20.7,6,21,6C21,6,21.1,6,21.3,6z M33.5,15.3
	c-1-0.3-0.9,0.5-0.9,1.1c0,0.7-0.1,1.4,1,1.3c0.8-0.1,1-0.4,1-1.6C34.6,15.3,34.2,15.2,33.5,15.3z M24.8,7.1c0,0.3,0,0.5,0,0.8
	c0,0.2-0.1,0.6,0.3,0.6c0.4,0,0.3-0.3,0.3-0.5c0-0.3,0.2-0.4,0.5-0.3c0.3,0,0.6,0,0.7,0.4c0,0.2-0.1,0.6,0.2,0.6
	c0.3,0,0.1-0.4,0.2-0.7c0.2-0.5,0.2-1.1,0-1.6c-0.1-0.2-0.1-0.4-0.3-0.4C25.5,5.4,24.8,5.9,24.8,7.1z M33.9,9.4c0.3,0,0.5,0,0.6-0.3
	c0.1-0.3-0.2-0.4-0.4-0.4c-0.4-0.1-0.9-0.1-0.8-0.8c0.1-0.7,0.5-0.4,0.9-0.4c0.3,0,0.5-0.1,0.4-0.5c-0.1-0.3-1.6-0.5-1.7-0.2
	c-0.3,0.6-0.3,1.3-0.1,2C32.9,9.4,33.5,9.3,33.9,9.4z M23.1,5.4c0,0-0.2,0-0.4,0c-0.2,0-0.3,0-0.3,0.2c0,0.1,0,0.3,0.1,0.3
	c0.8,0.2,0.5,0.8,0.6,1.3c0.1,0.3-0.2,1,0.2,1c0.5,0,0.2-0.7,0.3-1c0.1-0.4-0.3-1.1,0.6-1.1c0.3,0,0.2-0.5-0.1-0.6
	C23.9,5.5,23.7,5.5,23.1,5.4z"/>
<path class="st2" d="M30.6,4.4C28.8,4.5,27,4,25.2,3.7c-2.1-0.4-4.3-0.6-6.4-1c-0.2,0-0.6,0-0.5-0.3c0-0.2,0.3-0.1,0.5-0.1
	c0.4,0,0.8,0,1.2,0c0.1,0,0.3,0,0.4,0c0.2,0.2,0.4,0.2,0.6,0.1c0.5,0.2,1.1,0.4,1.7,0.3c0.7,0.4,1.5,0.3,2.2,0.4
	c1.2,0.2,2.3,0.6,3.6,0.6C29.2,3.9,30,3.9,30.6,4.4z"/>
<path class="st1" d="M3.9,5.6c1.2,0,2.1-0.6,3.2-0.9c0.2,0,0.5-0.3,0.6,0C7.8,5,8.1,5.4,7.6,5.6C7.5,5.7,7.4,5.9,7.4,6.1
	C7.3,6.4,7,6.6,6.7,6.7c-0.3,0-0.2-0.3-0.3-0.5C6.4,5.7,6.1,5.7,5.7,5.7C5,5.9,4.2,6,3.5,6.1C3.3,6.2,2.9,6.3,2.8,6
	C2.7,5.8,3.2,5.9,3.3,5.7C3.5,5.4,3.8,5.7,3.9,5.6z"/>
<path class="st1" d="M14.8,14.3c-0.1-0.6,0.3-1.4-0.4-2c-0.2-0.1,0-0.2,0.2-0.3c0.6-0.2,1.1,0.2,1,0.8c-0.1,1-0.1,1.9-0.1,2.9
	c0,0.2,0,0.5-0.3,0.5c-0.3,0-0.3-0.3-0.3-0.5C14.8,15.3,14.8,14.9,14.8,14.3z"/>
<path class="st1" d="M17,13.8c0,0.9-0.1,1.7-0.2,2.6c0,0.2,0,0.6-0.2,0.6c-0.2,0-0.1-0.4-0.1-0.6c0.1-1.1,0.2-2.3,0.1-3.4
	c0-0.3,0-0.6-0.4-0.8c-0.2-0.1-0.5-0.2-0.5-0.5c0-0.3,0.3-0.1,0.5-0.2c0.3,0,0.7,0,0.7,0.5C17,12.6,17,13.2,17,13.8z"/>
<path class="st1" d="M28.4,3.7c-1.2,0-2.4-0.4-3.6-0.6c-0.7-0.1-1.5,0-2.2-0.4c0-0.3,0.1-0.4,0.4-0.4c1.7,0.4,3.4,0.7,5,1.1
	C28.3,3.4,28.4,3.5,28.4,3.7z"/>
<path class="st2" d="M12.6,1.8c-0.2,0.5-0.8,0.7-1.3,0.8c-0.3,0.1-0.6,0.3-0.8,0c-0.2-0.2-0.2-0.5-0.1-0.8c0.1-0.4,0.4-0.3,0.7-0.3
	c0.4,0,0.8,0,1.1,0C12.4,1.6,12.6,1.6,12.6,1.8z"/>
<path class="st2" d="M8.1,3c0,0.2,0,0.4-0.5,0.4c-0.1,0-0.3,0-0.4,0.1C7.1,3.7,7,4.3,6.6,4C6.4,3.8,6.4,3.3,6.4,2.9
	c0-0.5,0.4-0.5,0.7-0.4C7.4,2.6,8.1,1.7,8.1,3z"/>
<path class="st1" d="M21.8,24.4c0-0.5-0.3-0.5-0.7-0.6c-0.4-0.1-0.7-0.4-0.6-0.8c0.1-0.4,0.8-0.2,1-0.5c0,0,0.1,0.1,0.1,0.1
	C21.6,23.2,22.2,23.7,21.8,24.4L21.8,24.4z"/>
<path class="st1" d="M15.5,4.8c0.1,0.4,0.1,0.7,0,1.1c-0.4,0-0.5,0.2-0.5,0.5c0,0.3,0.1,0.5,0.5,0.5c0,0.3,0.3,0.8-0.2,0.8
	c-0.4,0-0.7-0.3-0.6-0.7c0.2-0.7-0.3-1.5,0.2-2.1C15.2,4.8,15.4,4.8,15.5,4.8z"/>
<path class="st1" d="M19.8,17.7c-0.2,0.2-0.3,0.6-0.5,0.4c-0.5-0.3-0.4-1-0.6-1.5c-0.1-0.2,0.2-0.2,0.4-0.2
	C19.8,16.6,19.5,17.3,19.8,17.7z"/>
<path class="st2" d="M15.5,3.6c-0.2-0.2-0.8,0.1-0.7-0.5c0.1-0.3,0.3-0.3,0.5-0.2c0.3,0.1,0.4,0.4,0.2,0.7
	C15.6,3.5,15.5,3.5,15.5,3.6z"/>
<path class="st2" d="M15.6,6.9c-0.4,0-0.5-0.2-0.5-0.5c0-0.4,0.1-0.5,0.5-0.5C15.6,6.2,15.6,6.5,15.6,6.9z"/>
<path class="st1" d="M21.8,24.4c-0.1,0.1-0.2,0.2-0.2,0.3c-0.1,0.1,0,0.5-0.3,0.4C21,25,21,24.6,21,24.4c0-0.3,0.3-0.1,0.4,0
	C21.6,24.4,21.7,24.4,21.8,24.4C21.8,24.4,21.8,24.4,21.8,24.4z"/>
<path class="st1" d="M20.6,17.6c0.2,0,0.2,0.1,0.2,0.2c0,0.3-0.3,0.3-0.5,0.3c-0.1,0-0.3-0.1-0.2-0.2C20.2,17.9,20.4,17.8,20.6,17.6
	z"/>
<path class="st1" d="M6,4.8c0,0-0.1,0.1-0.1,0.1C5.5,5,5.1,5,4.7,5.1c0-0.1,0-0.1,0.1-0.2C5.1,4.6,5.6,5,6,4.8z"/>
<path class="st1" d="M19.7,20.4c0,0.2-0.1,0.4-0.3,0.4c-0.2,0-0.2-0.2-0.2-0.3c0-0.2,0-0.4,0.2-0.4C19.7,20.1,19.6,20.3,19.7,20.4z"
	/>
<path class="st2" d="M15.5,4.8c-0.2,0-0.4,0-0.6,0c-0.2-0.5,0.1-0.6,0.5-0.7c0,0.1,0,0.1,0.1,0.1C15.6,4.4,15.5,4.6,15.5,4.8z"/>
<path class="st1" d="M19.2,18.7c0.2,0,0.3,0.2,0.3,0.3c0.1,0.2,0,0.3-0.2,0.3c-0.2,0-0.2-0.2-0.3-0.4C19,18.8,19,18.7,19.2,18.7z"/>
<path class="st1" d="M21,2.4c-0.2,0-0.4,0.1-0.6-0.1C20.7,2,20.8,2,21,2.4z"/>
<path class="st1" d="M15.6,4.2c-0.1,0-0.1,0-0.1-0.1c0-0.2,0-0.4,0-0.6c0,0,0.1-0.1,0.1,0C15.6,3.8,15.7,4,15.6,4.2z"/>
<path class="st1" d="M18.1,13C18.1,13,18.1,13,18.1,13C18.1,13,18.1,13,18.1,13C18.1,13,18.1,13,18.1,13z"/>
<path class="st0" d="M32.1,14.2c-2.1-0.3-4.1-0.6-6.2-0.9c-0.4-0.1-0.5-0.3-0.4-0.7c0.1-0.3,0.1-0.7,0.5-0.6
	c2.1,0.3,4.2,0.6,6.3,0.9c0.3,0,0.7,0.1,0.6,0.6C32.7,13.8,32.7,14.2,32.1,14.2z"/>
<path class="st0" d="M34.8,11.7c-0.3,0.7-0.7,1-1.5,0.9c-2-0.3-4-0.4-5.9-0.8c-2.3-0.5-4.7-0.7-7-1.2c-0.3-0.1-0.7-0.1-0.6-0.4
	c0.1-0.3,0.5-0.1,0.7-0.1c4.3,0.6,8.6,1.2,12.9,1.9c0.6,0.1,0.9-0.2,1.3-0.4C34.7,11.6,34.8,11.6,34.8,11.7z"/>
<path class="st0" d="M27.7,7.3c0-0.3,0-0.6,0-0.9c0-0.2-0.1-0.5,0.3-0.5c0.4,0,0.4,0.2,0.4,0.5c0,0.6,0.2,0.5,0.4,0.2
	c0.1-0.1,0.2-0.2,0.3-0.3c0.2-0.2,0.5-0.4,0.7-0.1c0.3,0.3-0.1,0.4-0.3,0.6c-0.3,0.3-0.6,0.6-0.4,0.9c0.2,0.4,0.6,0.7,0.9,0.9
	c0.2,0.2,0.2-0.1,0.3-0.3c0.2-0.5,0.5-1,0.7-1.5c0.1-0.2,0.1-0.3,0.4-0.3c0.2,0,0.3,0.2,0.3,0.4c0.2,0.7,0.3,1.3,0.5,2
	c0,0.1,0,0.2-0.1,0.3c-0.1,0-0.2,0-0.3-0.1c-0.4-0.3-0.7-0.7-1.4-0.1c-0.5,0.5-1.3-0.1-1.7-0.7c-0.1-0.2-0.2-0.5-0.4-0.4
	c-0.3,0.1-0.1,0.3-0.1,0.5c0,0.2,0,0.4-0.2,0.4c-0.3,0-0.3-0.2-0.3-0.4C27.7,8,27.7,7.6,27.7,7.3C27.7,7.3,27.7,7.3,27.7,7.3z"/>
<path class="st0" d="M25.3,15.5c-0.2,0.4,0.3,1-0.4,1.2c-0.5,0.2-1.2,0.1-1.5-0.3c-0.5-0.5-0.3-1.3-0.2-1.9c0-0.2,0.2-0.1,0.3-0.1
	c0.2,0,0.4-0.2,0.6-0.2c-0.2,0-0.4-0.1-0.5-0.1c-0.1,0-0.3-0.1-0.2-0.2c0-0.1,0.2-0.1,0.3-0.1C25,13.7,25.3,14,25.3,15.5z"/>
<path class="st0" d="M28.1,15.6c-0.1-0.6,0-1.2,1-1.1c1.1,0.1,1.4,0.3,1.3,1.3c-0.1,0.5,0.5,1.4-0.7,1.4
	C28.1,17.2,28.1,17.2,28.1,15.6z"/>
<path class="st0" d="M21.3,6C21.1,6,21,6,21,6c-0.2,0-0.5-0.1-0.5,0.3c0,0.3,0.3,0.2,0.5,0.2c0.4,0,0.9-0.1,0.9,0.6
	c0,0.4,0.4,0.9-0.2,1.1c-0.5,0.2-1.1,0.1-1.6-0.1c-0.1,0-0.1-0.2-0.1-0.3c0-0.1,0.1-0.2,0.2-0.2c0.2,0,0.3,0,0.5,0
	c0.2,0,0.4,0.1,0.4-0.2c0-0.2-0.2-0.4-0.4-0.4c-0.9,0.2-0.8-0.4-0.8-1c0-0.7,0.5-0.7,1-0.7c0.1,0,0.2,0,0.3,0
	c0.3,0.1,0.9-0.2,0.9,0.3C22.1,6.3,21.5,5.9,21.3,6z"/>
<path class="st0" d="M33.5,15.3c0.7-0.1,1.1,0,1.1,0.8c-0.1,1.2-0.3,1.5-1,1.6c-1.1,0.1-1-0.7-1-1.3C32.6,15.8,32.5,15,33.5,15.3z"
	/>
<path class="st0" d="M24.8,7.1c0-1.1,0.7-1.6,1.8-1.2c0.2,0.1,0.3,0.3,0.3,0.4c0.2,0.5,0.2,1.1,0,1.6c-0.1,0.2,0.1,0.6-0.2,0.7
	c-0.3,0-0.1-0.4-0.2-0.6c-0.1-0.4-0.4-0.3-0.7-0.4c-0.3,0-0.5,0-0.5,0.3c0,0.2,0.1,0.5-0.3,0.5c-0.4,0-0.3-0.4-0.3-0.6
	C24.8,7.6,24.8,7.3,24.8,7.1z M25.9,7c0.1-0.1,0.4,0.3,0.4-0.1c0-0.4-0.3-0.4-0.6-0.5c-0.2-0.1-0.4,0-0.4,0.2
	C25.4,6.9,25.6,7.1,25.9,7z"/>
<path class="st0" d="M33.9,9.4c-0.4-0.1-1,0-1.1-0.6c-0.2-0.6-0.2-1.3,0.1-2c0.1-0.3,1.6-0.1,1.7,0.2c0.1,0.3-0.1,0.5-0.4,0.5
	c-0.3,0-0.8-0.2-0.9,0.4c-0.1,0.7,0.4,0.7,0.8,0.8c0.2,0.1,0.5,0.1,0.4,0.4C34.5,9.5,34.2,9.4,33.9,9.4z"/>
<path class="st0" d="M23.1,5.4c0.5,0,0.8,0,1,0.1c0.3,0.1,0.3,0.5,0.1,0.6c-0.9,0.1-0.5,0.7-0.6,1.1c-0.1,0.4,0.2,1-0.3,1
	c-0.4,0-0.2-0.6-0.2-1c-0.1-0.5,0.2-1.2-0.6-1.3c-0.1,0-0.1-0.2-0.1-0.3c0-0.2,0.2-0.2,0.3-0.2C23,5.4,23.2,5.4,23.1,5.4z"/>
<path class="st0" d="M18.5,12.5c0.4,0,0.3,0.7,0.9,0.5c0.1-0.1,0,0.2-0.1,0.3c-0.2,0.2-0.3,0.4-0.5,0.1
	C18.5,13.1,18.4,12.8,18.5,12.5C18.4,12.5,18.5,12.5,18.5,12.5z"/>
<path class="st0" d="M19.4,9.3c0.2,0.1,0.3,0.2,0.2,0.4c0,0-0.1,0.1-0.1,0.1C19.3,9.7,19.3,9.5,19.4,9.3C19.3,9.3,19.3,9.3,19.4,9.3
	z"/>
<path class="st0" d="M19.1,9.2C19,9.1,18.8,9,19,8.8C19.1,8.8,19.2,8.9,19.1,9.2C19.2,9.1,19.1,9.2,19.1,9.2z"/>
<path class="st0" d="M34.6,11.5c0-0.1,0.1-0.3,0.2-0.2c0.2,0.1,0.1,0.2,0,0.3C34.8,11.6,34.7,11.6,34.6,11.5z"/>
<path class="st0" d="M19.2,9.1c0.1,0.1,0.1,0.1,0.2,0.2c0,0-0.1,0.1-0.1,0.1C19.2,9.3,19.2,9.3,19.2,9.1C19.1,9.2,19.2,9.1,19.2,9.1
	z"/>
<path class="st1" d="M25.9,7c-0.3,0.1-0.5-0.1-0.5-0.4c0-0.2,0.2-0.3,0.4-0.2c0.2,0.1,0.6,0,0.6,0.5C26.3,7.3,26,6.9,25.9,7z"/>
</svg>
