<?xml version="1.0" encoding="utf-8"?>
<!-- Generator: Adobe Illustrator 25.0.1, SVG Export Plug-In . SVG Version: 6.00 Build 0)  -->
<svg version="1.1" id="Layer_1" xmlns="http://www.w3.org/2000/svg" xmlns:xlink="http://www.w3.org/1999/xlink" x="0px" y="0px"
	 viewBox="0 0 24 24" style="enable-background:new 0 0 24 24;" xml:space="preserve">
<style type="text/css">
	.st0{fill-rule:evenodd;clip-rule:evenodd;fill:#24292F;}
</style>
<path class="st0" d="M12,0.3c-6.6,0-11.9,5.4-11.9,12c0,5.3,3.4,9.8,8.2,11.4C8.8,23.8,9,23.4,9,23.1c0-0.3,0-1.2,0-2.2
	c-3.3,0.7-4-1.4-4-1.4c-0.5-1.4-1.3-1.7-1.3-1.7C2.6,17,3.8,17,3.8,17C5,17,5.6,18.2,5.6,18.2c1.1,1.8,2.8,1.3,3.5,1
	c0.1-0.8,0.4-1.3,0.8-1.6c-2.6-0.3-5.4-1.3-5.4-5.9c0-1.3,0.5-2.4,1.2-3.2C5.5,8.1,5.1,6.9,5.8,5.3c0,0,1-0.3,3.3,1.2
	c1-0.3,2-0.4,3-0.4c1,0,2,0.1,3,0.4c2.3-1.6,3.3-1.2,3.3-1.2c0.7,1.7,0.2,2.9,0.1,3.2c0.8,0.8,1.2,1.9,1.2,3.2
	c0,4.6-2.8,5.6-5.4,5.9c0.4,0.4,0.8,1.1,0.8,2.2c0,1.6,0,2.9,0,3.3c0,0.3,0.2,0.7,0.8,0.6c4.7-1.6,8.2-6.1,8.2-11.4
	C23.9,5.7,18.6,0.3,12,0.3z"/>
</svg>
